<?xml version="1.0" encoding="UTF-8" standalone="no"?>
<!-- Created with Inkscape (http://www.inkscape.org/) -->

<svg
   xmlns:dc="http://purl.org/dc/elements/1.1/"
   xmlns:cc="http://creativecommons.org/ns#"
   xmlns:rdf="http://www.w3.org/1999/02/22-rdf-syntax-ns#"
   xmlns:svg="http://www.w3.org/2000/svg"
   xmlns="http://www.w3.org/2000/svg"
   xmlns:sodipodi="http://sodipodi.sourceforge.net/DTD/sodipodi-0.dtd"
   xmlns:inkscape="http://www.inkscape.org/namespaces/inkscape"
   width="225.77777mm"
   height="169.33333mm"
   viewBox="0 0 799.99998 599.99998"
   id="svg2"
   version="1.1"
   inkscape:version="0.91 r13725"
   sodipodi:docname="hills.svg"
   inkscape:export-xdpi="90"
   inkscape:export-ydpi="90">
  <defs
     id="defs4" />
  <sodipodi:namedview
     id="base"
     pagecolor="#ffffff"
     bordercolor="#666666"
     borderopacity="1.0"
     inkscape:pageopacity="0.0"
     inkscape:pageshadow="2"
     inkscape:zoom="0.98994949"
     inkscape:cx="497.73251"
     inkscape:cy="254.80256"
     inkscape:document-units="px"
     inkscape:current-layer="layer3"
     showgrid="false"
     fit-margin-top="0"
     fit-margin-left="0"
     fit-margin-right="0"
     fit-margin-bottom="0"
     inkscape:window-width="1596"
     inkscape:window-height="861"
     inkscape:window-x="0"
     inkscape:window-y="37"
     inkscape:window-maximized="0" />
  <metadata
     id="metadata7">
    <rdf:RDF>
      <cc:Work
         rdf:about="">
        <dc:format>image/svg+xml</dc:format>
        <dc:type
           rdf:resource="http://purl.org/dc/dcmitype/StillImage" />
        <dc:title></dc:title>
      </cc:Work>
    </rdf:RDF>
  </metadata>
  <g
     inkscape:label="Layer 1"
     inkscape:groupmode="layer"
     id="layer1"
     transform="translate(0,-452.36221)">
    <g
       id="g4373">
      <rect
         y="732.36218"
         x="0"
         height="320"
         width="800"
         id="rect4371"
         style="fill:#ccff00;fill-opacity:1;stroke:none;stroke-width:1;stroke-miterlimit:4;stroke-dasharray:none;stroke-opacity:1" />
      <path
         transform="translate(0,452.36221)"
         id="rect4136"
         d="M 377.16406 240.93359 A 17.320509 17.5 0 0 0 362.16406 249.68359 L 362.16406 249.99609 A 17.320509 17.5 0 0 0 362.16211 250 A 17.320509 17.5 0 0 1 347.16211 258.75 A 17.320509 17.5 0 0 1 332.16211 250 A 17.320509 17.5 0 0 0 317.16211 241.25 A 17.320509 17.5 0 0 0 302.16211 250 A 17.320509 17.5 0 0 1 287.16211 258.75 A 17.320509 17.5 0 0 1 272.16211 250 A 17.320509 17.5 0 0 0 257.16211 241.25 A 17.320509 17.5 0 0 0 242.16211 250 A 17.320509 17.5 0 0 1 227.16211 258.75 A 17.320509 17.5 0 0 1 212.16211 250 A 17.320509 17.5 0 0 0 197.16211 241.25 A 17.320509 17.5 0 0 0 196.76953 241.25977 A 17.320509 17.5 0 0 0 195.01953 241.16016 A 17.320509 17.5 0 0 0 180.01953 249.91016 A 17.320509 17.5 0 0 1 165.01953 258.66016 A 17.320509 17.5 0 0 1 150.01953 249.91016 A 17.320509 17.5 0 0 0 135.01953 241.16016 A 17.320509 17.5 0 0 0 120.01953 249.91016 A 17.320509 17.5 0 0 1 105.01953 258.66016 A 17.320509 17.5 0 0 1 90.019531 249.91016 A 17.320509 17.5 0 0 0 75.019531 241.16016 A 17.320509 17.5 0 0 0 60.019531 249.91016 A 17.320509 17.5 0 0 1 45.019531 258.66016 A 17.320509 17.5 0 0 1 30.019531 249.91016 A 17.320509 17.5 0 0 0 15.019531 241.16016 A 17.320509 17.5 0 0 0 0.01953125 249.91016 L 0.01953125 299.91016 L 182.16211 299.91016 L 182.16211 300 L 382.16211 300 L 382.16211 299.91016 L 544.79688 299.91016 L 544.79688 300 L 744.79688 300 L 744.79688 299.75586 L 800 299.75586 L 800 241.00977 A 17.320509 17.5 0 0 0 799.79688 241.00586 A 17.320509 17.5 0 0 0 784.79688 249.75586 A 17.320509 17.5 0 0 1 769.79688 258.50586 A 17.320509 17.5 0 0 1 762.6543 256.93164 L 762.6543 256.85742 A 17.320509 17.5 0 0 1 754.79883 249.68359 A 17.320509 17.5 0 0 0 739.79883 240.93359 A 17.320509 17.5 0 0 0 724.79883 249.68359 L 724.79883 249.75195 A 17.320509 17.5 0 0 0 724.79688 249.75586 L 724.79688 250 A 17.320509 17.5 0 0 1 709.79688 258.75 A 17.320509 17.5 0 0 1 694.79688 250 A 17.320509 17.5 0 0 0 679.79688 241.25 A 17.320509 17.5 0 0 0 664.79688 250 A 17.320509 17.5 0 0 1 649.79688 258.75 A 17.320509 17.5 0 0 1 634.79688 250 A 17.320509 17.5 0 0 0 619.79688 241.25 A 17.320509 17.5 0 0 0 604.79688 250 A 17.320509 17.5 0 0 1 589.79688 258.75 A 17.320509 17.5 0 0 1 574.79688 250 A 17.320509 17.5 0 0 0 559.79688 241.25 A 17.320509 17.5 0 0 0 559.4043 241.25977 A 17.320509 17.5 0 0 0 557.6543 241.16016 A 17.320509 17.5 0 0 0 542.6543 249.91016 A 17.320509 17.5 0 0 1 527.6543 258.66016 A 17.320509 17.5 0 0 1 512.6543 249.91016 A 17.320509 17.5 0 0 0 497.6543 241.16016 A 17.320509 17.5 0 0 0 482.6543 249.91016 A 17.320509 17.5 0 0 1 467.6543 258.66016 A 17.320509 17.5 0 0 1 452.6543 249.91016 A 17.320509 17.5 0 0 0 437.6543 241.16016 A 17.320509 17.5 0 0 0 422.6543 249.91016 A 17.320509 17.5 0 0 1 407.6543 258.66016 A 17.320509 17.5 0 0 1 399.63086 256.65625 A 17.320509 17.5 0 0 1 399.26367 256.46484 A 17.320509 17.5 0 0 1 392.6543 249.91016 A 17.320509 17.5 0 0 0 384.80273 242.73828 A 17.320509 17.5 0 0 0 377.16406 240.93359 z "
         style="fill:#ccff00;fill-opacity:1;stroke:none;stroke-width:1;stroke-miterlimit:4;stroke-dasharray:none;stroke-opacity:1" />
    </g>
  </g>
  <g
     inkscape:groupmode="layer"
     id="layer2"
     inkscape:label="Layer 2">
    <g
       transform="translate(0,-452.36221)"
       style=""
       id="g4379">
      <path
         id="path4138-6-1-3-0-3"
         transform="translate(0,452.36221)"
         d="M 754.28906 322.04688 A 34.641018 35 0 0 0 724.28906 339.54688 L 724.28906 340.17188 A 34.641018 35 0 0 0 724.28516 340.17773 A 34.641018 35 0 0 1 694.28516 357.67773 A 34.641018 35 0 0 1 664.28516 340.17773 A 34.641018 35 0 0 0 634.28516 322.67773 A 34.641018 35 0 0 0 604.28516 340.17773 A 34.641018 35 0 0 1 574.28516 357.67773 A 34.641018 35 0 0 1 544.28516 340.17773 A 34.641018 35 0 0 0 514.28516 322.67773 A 34.641018 35 0 0 0 484.28516 340.17773 A 34.641018 35 0 0 1 454.28516 357.67773 A 34.641018 35 0 0 1 424.28516 340.17773 A 34.641018 35 0 0 0 394.28516 322.67773 A 34.641018 35 0 0 0 393.5 322.69727 A 34.641018 35 0 0 0 390 322.5 A 34.641018 35 0 0 0 360 340 A 34.641018 35 0 0 1 330 357.5 A 34.641018 35 0 0 1 300 340 A 34.641018 35 0 0 0 270 322.5 A 34.641018 35 0 0 0 240 340 A 34.641018 35 0 0 1 210 357.5 A 34.641018 35 0 0 1 180 340 A 34.641018 35 0 0 0 150 322.5 A 34.641018 35 0 0 0 120 340 A 34.641018 35 0 0 1 90 357.5 A 34.641018 35 0 0 1 60 340 A 34.641018 35 0 0 0 30 322.5 A 34.641018 35 0 0 0 0 340 L 0 440 L 364.28516 440 L 364.28516 440.17773 L 764.28516 440.17773 L 764.28516 439.54688 L 800 439.54688 L 800 353.89258 A 34.641018 35 0 0 1 784.28906 339.54688 A 34.641018 35 0 0 0 754.28906 322.04688 z "
         style="fill:#55d400;fill-opacity:1;stroke:none;stroke-width:1;stroke-miterlimit:4;stroke-dasharray:none;stroke-opacity:1" />
      <rect
         y="892.36218"
         x="0"
         height="160"
         width="800"
         id="rect4377"
         style="fill:#55d400;fill-opacity:1;stroke:none;stroke-width:1;stroke-miterlimit:4;stroke-dasharray:none;stroke-opacity:1" />
    </g>
  </g>
  <g
     inkscape:groupmode="layer"
     id="layer3"
     inkscape:label="Layer 3"
     style="display:inline">
    <path
       transform="translate(0,-452.36221)"
       id="path4138-6-1-3-0"
       style="fill:#338000;fill-opacity:1;stroke:none;stroke-width:1;stroke-miterlimit:4;stroke-dasharray:none;stroke-opacity:1"
       d="m 780,817.36219 a 69.282036,70 0 0 0 -60,35 l 80,0 0,-31.99609 a 69.282036,70 0 0 0 -20,-3.00391 z m -300,34.99999 a 69.282036,70 0 0 1 60,-35 69.282036,70 0 0 1 60,35 m -360,-10e-5 a 69.282036,70 0 0 1 60,-35 69.282036,70 0 0 1 60,35 m -360,10e-5 a 69.282036,70 0 0 1 60.000002,-35 69.282036,70 0 0 1 60.000008,35 m -120.00000975095503,0 0,200.00002 L 800,1052.3622 l 0,-200.00002 -80,0 a 69.282036,70 0 0 1 -60,35 69.282036,70 0 0 1 -60,-35 l -120,0 a 69.282036,70 0 0 1 -60,35 69.282036,70 0 0 1 -60,-35 l -120,0 a 69.282036,70 0 0 1 -60,35 69.282036,70 0 0 1 -60,-35 l -119.99999975095502,0 z"
       inkscape:connector-curvature="0" />
  </g>
</svg>
